<svg width="20" height="20" viewBox="0 0 20 20" fill="none" xmlns="http://www.w3.org/2000/svg">
<path d="M9.99989 13.5554C11.9635 13.5554 13.5554 11.9635 13.5554 9.99989C13.5554 8.03621 11.9635 6.44434 9.99989 6.44434C8.03621 6.44434 6.44434 8.03621 6.44434 9.99989C6.44434 11.9635 8.03621 13.5554 9.99989 13.5554Z" stroke="white" stroke-width="2.78409" stroke-linecap="round" stroke-linejoin="round"/>
<path d="M2 13.5556V6.44444C2 3.98985 3.98985 2 6.44444 2H13.5556C16.0101 2 18 3.98985 18 6.44444V13.5556C18 16.0101 16.0101 18 13.5556 18H6.44444C3.98985 18 2 16.0101 2 13.5556Z" stroke="white" stroke-width="2.78409"/>
<path d="M14.8889 5.1203L14.8981 5.11011" stroke="white" stroke-width="2.78409" stroke-linecap="round" stroke-linejoin="round"/>
</svg>
